<?xml version="1.0" encoding="UTF-8"?>
<svg width="25px" height="25px" viewBox="0 0 35 35" version="1.1" xmlns="http://www.w3.org/2000/svg" xmlns:xlink="http://www.w3.org/1999/xlink">
    <!-- Generator: Sketch 52.6 (67491) - http://www.bohemiancoding.com/sketch -->
    <title>Buttons / Share Button</title>
    <desc>Created with Sketch.</desc>
    <g id="Buttons-/-Share-Button" stroke="none" stroke-width="1" fill="none" fill-rule="evenodd">
        <g id="share-icon" transform="translate(18.000000, 17.500000) scale(-1, 1) translate(-18.000000, -17.500000) translate(2.000000, 0.000000)" fill="#000000">
            <path d="M26.8156425,12.3115578 C25.3854749,12.3115578 24.1340782,12.839196 23.2402235,13.718593 C19.9481618,11.848292 17.4791155,10.4455663 15.8330846,9.51041581 C14.6585072,8.84310956 12.896641,7.84215019 10.547486,6.50753769 C10.726257,6.15577889 10.726257,5.6281407 10.726257,5.27638191 C10.726257,2.28643216 8.40223464,0 5.36312849,0 C2.32402235,0 0,2.28643216 0,5.27638191 C0,8.26633166 2.32402235,10.5527638 5.36312849,10.5527638 C6.79329609,10.5527638 8.04469274,10.0251256 8.93854749,9.14572864 C11.1824358,10.4205366 12.865352,11.3766425 13.9872961,12.0140465 C15.6859603,12.9790993 18.2339566,14.4266784 21.6312849,16.3567839 C21.452514,16.7085427 21.452514,17.2361809 21.452514,17.5879397 C21.452514,17.9396985 21.452514,18.4673367 21.6312849,18.8190955 L8.93854749,26.2060302 C8.04469274,25.3266332 6.79329609,24.798995 5.36312849,24.798995 C2.5027933,24.798995 0.17877095,27.0854271 0.17877095,29.8994975 C0.17877095,32.7135678 2.5027933,35 5.36312849,35 C8.22346369,35 10.547486,32.7135678 10.547486,29.8994975 C10.547486,29.5477387 10.547486,29.1959799 10.3687151,28.6683417 L23.0614525,21.281407 C23.9553073,22.160804 25.2067039,22.6884422 26.6368715,22.6884422 C29.6759777,22.6884422 32,20.4020101 32,17.4120603 C32,14.4221106 29.8547486,12.3115578 26.8156425,12.3115578 Z" id="Path"></path>
        </g>
    </g>
</svg>